<svg width="38" height="28" viewBox="0 0 38 28" fill="none" xmlns="http://www.w3.org/2000/svg">
<path d="M33.6356 26.9072C35.9156 22.9581 37.1159 18.4784 37.1159 13.9184C37.1159 9.35842 35.9156 4.87876 33.6356 0.929688M28.6732 23.4761C30.3509 20.5702 31.2342 17.2738 31.2342 13.9183C31.2342 10.5629 30.3509 7.26652 28.6732 4.3606M23.5137 21.0254C24.7182 18.8646 25.3523 16.4134 25.3523 13.9183C25.3523 11.4233 24.7182 8.97212 23.5137 6.8113" stroke="#9E9E9E" stroke-linecap="round"/>
<path fill-rule="evenodd" clip-rule="evenodd" d="M11.6286 2.66406H13.5302C14.6348 2.66406 15.5302 3.55949 15.5302 4.66406V24.1514C15.5302 25.256 14.6348 26.1514 13.5302 26.1514H3.8457C2.74113 26.1514 1.8457 25.256 1.8457 24.1514V4.66406C1.8457 3.55949 2.74113 2.66406 3.8457 2.66406H5.74733C5.75783 3.19636 6.19261 3.62463 6.72741 3.62463H10.6485C11.1833 3.62463 11.6181 3.19636 11.6286 2.66406ZM10.6485 1.66406H13.5302C15.1871 1.66406 16.5302 3.00721 16.5302 4.66406V24.1514C16.5302 25.8082 15.1871 27.1514 13.5302 27.1514H3.8457C2.18885 27.1514 0.845703 25.8082 0.845703 24.1514V4.66406C0.845703 3.00721 2.18885 1.66406 3.8457 1.66406H6.72741H10.6485Z" fill="#9E9E9E"/>
</svg>
