<svg width="62" height="58" viewBox="0 0 62 58" fill="none" xmlns="http://www.w3.org/2000/svg">
<circle cx="32.8389" cy="29" r="29" fill="white"/>
<path d="M48.4748 41.9076C50.7548 37.9585 51.9551 33.4789 51.9551 28.9189C51.9551 24.3589 50.7548 19.8792 48.4748 15.9301" stroke="#9E9E9E" stroke-linecap="round"/>
<path d="M43.5123 38.477C45.19 35.571 46.0732 32.2747 46.0732 28.9192C46.0732 25.5637 45.19 22.2674 43.5123 19.3615" stroke="#9E9E9E" stroke-linecap="round"/>
<path d="M38.3527 36.0262C39.5573 33.8654 40.1914 31.4143 40.1914 28.9192C40.1914 26.4241 39.5573 23.9729 38.3527 21.8121" stroke="#9E9E9E" stroke-linecap="round"/>
<path fill-rule="evenodd" clip-rule="evenodd" d="M26.4675 17.6641H28.3691C29.4736 17.6641 30.3691 18.5595 30.3691 19.6641V39.1514C30.3691 40.256 29.4736 41.1514 28.3691 41.1514H18.6846C17.58 41.1514 16.6846 40.256 16.6846 39.1514V19.6641C16.6846 18.5595 17.58 17.6641 18.6846 17.6641H20.5862C20.5967 18.1964 21.0315 18.6246 21.5663 18.6246H25.4874C26.0222 18.6246 26.457 18.1964 26.4675 17.6641ZM25.4874 16.6641H28.3691C30.0259 16.6641 31.3691 18.0072 31.3691 19.6641V39.1514C31.3691 40.8082 30.0259 42.1514 28.3691 42.1514H18.6846C17.0277 42.1514 15.6846 40.8082 15.6846 39.1514V19.6641C15.6846 18.0072 17.0277 16.6641 18.6846 16.6641H21.5663H25.4874Z" fill="#9E9E9E"/>
</svg>
