<svg width="342" height="52" viewBox="0 0 342 52" fill="none" xmlns="http://www.w3.org/2000/svg">
<rect width="342" height="51.5478" rx="5" fill="#FEE500"/>
<path d="M118.919 20.272H120.215C120.215 21.3173 120.114 22.3413 119.911 23.344C119.708 24.336 119.362 25.2853 118.871 26.192C118.38 27.088 117.708 27.9307 116.855 28.72C116.002 29.5093 114.93 30.224 113.639 30.864L112.903 29.84C114.055 29.2747 115.015 28.6507 115.783 27.968C116.551 27.2853 117.164 26.5493 117.623 25.76C118.082 24.9707 118.412 24.128 118.615 23.232C118.818 22.336 118.919 21.3973 118.919 20.416V20.272ZM113.703 20.272H119.719V21.36H113.703V20.272ZM118.727 23.856V24.896L113.175 25.424L112.967 24.256L118.727 23.856ZM122.567 18.768H123.895V33.232H122.567V18.768ZM123.543 24.64H126.199V25.744H123.543V24.64ZM133.238 20.272H134.534C134.534 21.3173 134.432 22.3413 134.23 23.344C134.027 24.336 133.68 25.2853 133.19 26.192C132.699 27.088 132.027 27.9307 131.174 28.72C130.32 29.5093 129.248 30.224 127.958 30.864L127.222 29.84C128.374 29.2747 129.334 28.6507 130.102 27.968C130.87 27.2853 131.483 26.5493 131.942 25.76C132.4 24.9707 132.731 24.128 132.934 23.232C133.136 22.336 133.238 21.3973 133.238 20.416V20.272ZM128.022 20.272H134.038V21.36H128.022V20.272ZM133.046 23.856V24.896L127.494 25.424L127.286 24.256L133.046 23.856ZM136.886 18.768H138.214V33.232H136.886V18.768ZM137.862 24.64H140.518V25.744H137.862V24.64ZM147.284 26.944H148.596V30.544H147.284V26.944ZM147.94 19.712C148.964 19.712 149.871 19.872 150.66 20.192C151.45 20.5013 152.068 20.9387 152.516 21.504C152.975 22.0693 153.205 22.736 153.205 23.504C153.205 24.272 152.975 24.944 152.516 25.52C152.068 26.0853 151.45 26.5227 150.66 26.832C149.871 27.1413 148.964 27.296 147.94 27.296C146.927 27.296 146.02 27.1413 145.22 26.832C144.431 26.5227 143.812 26.0853 143.364 25.52C142.916 24.944 142.692 24.272 142.692 23.504C142.692 22.736 142.916 22.0693 143.364 21.504C143.812 20.9387 144.431 20.5013 145.22 20.192C146.02 19.872 146.927 19.712 147.94 19.712ZM147.94 20.784C147.172 20.784 146.49 20.896 145.892 21.12C145.295 21.344 144.826 21.664 144.484 22.08C144.143 22.4853 143.972 22.96 143.972 23.504C143.972 24.048 144.143 24.528 144.484 24.944C144.826 25.36 145.295 25.68 145.892 25.904C146.49 26.128 147.172 26.24 147.94 26.24C148.708 26.24 149.391 26.128 149.988 25.904C150.586 25.68 151.055 25.36 151.396 24.944C151.748 24.528 151.924 24.048 151.924 23.504C151.924 22.96 151.748 22.4853 151.396 22.08C151.055 21.664 150.586 21.344 149.988 21.12C149.391 20.896 148.708 20.784 147.94 20.784ZM141.412 30.288H154.533V31.392H141.412V30.288ZM155.731 30.352H168.851V31.456H155.731V30.352ZM161.603 27.264H162.915V30.816H161.603V27.264ZM157.331 19.84H167.219V24.224H158.675V27.12H157.363V23.168H165.907V20.928H157.331V19.84ZM157.363 26.56H167.555V27.648H157.363V26.56ZM177.958 20.016H179.062V22.608C179.062 23.44 178.955 24.2507 178.742 25.04C178.539 25.8187 178.246 26.5493 177.862 27.232C177.489 27.904 177.046 28.5013 176.534 29.024C176.033 29.536 175.483 29.9413 174.886 30.24L174.07 29.136C174.614 28.8907 175.121 28.5387 175.59 28.08C176.059 27.6213 176.47 27.104 176.822 26.528C177.174 25.9413 177.451 25.312 177.654 24.64C177.857 23.968 177.958 23.2907 177.958 22.608V20.016ZM178.182 20.016H179.286V22.608C179.286 23.2693 179.382 23.92 179.574 24.56C179.777 25.2 180.054 25.808 180.406 26.384C180.769 26.9493 181.179 27.4507 181.638 27.888C182.107 28.3147 182.609 28.6507 183.142 28.896L182.342 29.952C181.755 29.6747 181.211 29.2853 180.71 28.784C180.209 28.2827 179.766 27.7067 179.382 27.056C179.009 26.4053 178.715 25.7013 178.502 24.944C178.289 24.1867 178.182 23.408 178.182 22.608V20.016ZM184.662 18.768H185.99V33.264H184.662V18.768ZM192.037 20.256H193.125V21.424C193.125 22.3093 192.954 23.136 192.613 23.904C192.282 24.6613 191.818 25.3227 191.221 25.888C190.623 26.4427 189.919 26.864 189.109 27.152L188.405 26.128C189.13 25.872 189.765 25.504 190.309 25.024C190.853 24.544 191.274 24 191.573 23.392C191.882 22.7733 192.037 22.1173 192.037 21.424V20.256ZM192.277 20.256H193.365V21.424C193.365 22.0533 193.509 22.6613 193.797 23.248C194.085 23.8347 194.49 24.352 195.013 24.8C195.546 25.248 196.165 25.5947 196.869 25.84L196.197 26.88C195.407 26.592 194.714 26.1813 194.117 25.648C193.53 25.104 193.077 24.4693 192.757 23.744C192.437 23.0187 192.277 22.2453 192.277 21.424V20.256ZM188.805 19.776H196.549V20.864H188.805V19.776ZM198.373 18.768H199.701V27.488H198.373V18.768ZM199.333 22.576H201.829V23.696H199.333V22.576ZM190.293 28.256H199.701V33.248H198.373V29.344H190.293V28.256ZM212.595 18.768H213.907V33.248H212.595V18.768ZM213.603 24.72H216.275V25.84H213.603V24.72ZM202.707 21.088H211.235V22.176H202.707V21.088ZM207.043 23.36C207.726 23.36 208.329 23.504 208.851 23.792C209.385 24.08 209.801 24.4747 210.099 24.976C210.409 25.4667 210.563 26.0373 210.563 26.688C210.563 27.3387 210.409 27.9147 210.099 28.416C209.801 28.9173 209.385 29.312 208.851 29.6C208.329 29.8773 207.726 30.016 207.043 30.016C206.361 30.016 205.753 29.8773 205.219 29.6C204.697 29.312 204.281 28.9173 203.971 28.416C203.662 27.9147 203.507 27.3387 203.507 26.688C203.507 26.0373 203.662 25.4667 203.971 24.976C204.281 24.4747 204.697 24.08 205.219 23.792C205.753 23.504 206.361 23.36 207.043 23.36ZM207.043 24.464C206.606 24.464 206.217 24.56 205.875 24.752C205.534 24.944 205.262 25.2053 205.059 25.536C204.867 25.8667 204.771 26.2507 204.771 26.688C204.771 27.1253 204.867 27.5147 205.059 27.856C205.262 28.1867 205.534 28.448 205.875 28.64C206.217 28.8213 206.606 28.912 207.043 28.912C207.47 28.912 207.854 28.8213 208.195 28.64C208.537 28.448 208.803 28.1867 208.995 27.856C209.198 27.5147 209.299 27.1253 209.299 26.688C209.299 26.2507 209.198 25.8667 208.995 25.536C208.803 25.2053 208.537 24.944 208.195 24.752C207.854 24.56 207.47 24.464 207.043 24.464ZM206.355 18.944H207.683V21.568H206.355V18.944ZM227.65 18.768H228.978V33.248H227.65V18.768ZM223.41 20.336H224.722C224.722 21.3813 224.594 22.3893 224.338 23.36C224.093 24.3307 223.704 25.2533 223.17 26.128C222.637 26.992 221.944 27.7973 221.09 28.544C220.237 29.2907 219.202 29.9573 217.986 30.544L217.282 29.472C218.68 28.8 219.832 28.016 220.738 27.12C221.645 26.224 222.317 25.2267 222.754 24.128C223.192 23.0187 223.41 21.824 223.41 20.544V20.336ZM217.954 20.336H223.97V21.408H217.954V20.336Z" fill="black"/>
<path d="M59.4784 0H5.948V51.5478H59.4784V0Z" fill="#FEE500"/>
<path d="M32.2431 15.8608C26.4805 15.8608 21.8088 19.4674 21.8088 23.9162C21.8088 26.6822 23.6157 29.1219 26.3669 30.5723L25.2093 34.798C25.1072 35.1727 25.5345 35.4696 25.8626 35.2534L30.9371 31.9063C31.3655 31.9478 31.8003 31.9715 32.2431 31.9715C38.0058 31.9715 42.6774 28.3644 42.6774 23.9162C42.6774 19.4679 38.0058 15.8608 32.2431 15.8608Z" fill="black"/>
</svg>
