<svg width="342" height="52" viewBox="0 0 342 52" fill="none" xmlns="http://www.w3.org/2000/svg">
<rect width="342" height="51.5478" rx="5" fill="white"/>
<path d="M114.277 31.8418H112.8L117.072 20.2054H118.527L122.8 31.8418H121.322L117.845 22.0463H117.754L114.277 31.8418ZM114.822 27.2963H120.777V28.5463H114.822V27.2963ZM124.03 35.1145V23.1145H125.326V24.5009H125.485C125.583 24.3494 125.72 24.1562 125.894 23.9213C126.072 23.6827 126.326 23.4706 126.655 23.285C126.989 23.0956 127.439 23.0009 128.007 23.0009C128.742 23.0009 129.39 23.1846 129.951 23.552C130.511 23.9194 130.949 24.4403 131.263 25.1145C131.578 25.7888 131.735 26.5842 131.735 27.5009C131.735 28.4251 131.578 29.2263 131.263 29.9043C130.949 30.5785 130.513 31.1013 129.956 31.4725C129.4 31.8399 128.757 32.0236 128.03 32.0236C127.47 32.0236 127.021 31.9308 126.684 31.7452C126.347 31.5558 126.087 31.3418 125.905 31.1032C125.723 30.8607 125.583 30.66 125.485 30.5009H125.371V35.1145H124.03ZM125.348 27.4782C125.348 28.1373 125.445 28.7187 125.638 29.2225C125.831 29.7225 126.114 30.1145 126.485 30.3986C126.856 30.6789 127.311 30.8191 127.848 30.8191C128.409 30.8191 128.877 30.6713 129.252 30.3759C129.631 30.0766 129.915 29.6751 130.104 29.1713C130.297 28.6638 130.394 28.0994 130.394 27.4782C130.394 26.8645 130.299 26.3115 130.11 25.8191C129.924 25.3229 129.642 24.9308 129.263 24.6429C128.888 24.3513 128.417 24.2054 127.848 24.2054C127.303 24.2054 126.845 24.3437 126.473 24.6202C126.102 24.8929 125.822 25.2755 125.632 25.7679C125.443 26.2566 125.348 26.8266 125.348 27.4782ZM133.38 35.1145V23.1145H134.676V24.5009H134.835C134.933 24.3494 135.07 24.1562 135.244 23.9213C135.422 23.6827 135.676 23.4706 136.005 23.285C136.339 23.0956 136.789 23.0009 137.357 23.0009C138.092 23.0009 138.74 23.1846 139.301 23.552C139.861 23.9194 140.299 24.4403 140.613 25.1145C140.928 25.7888 141.085 26.5842 141.085 27.5009C141.085 28.4251 140.928 29.2263 140.613 29.9043C140.299 30.5785 139.863 31.1013 139.306 31.4725C138.75 31.8399 138.107 32.0236 137.38 32.0236C136.82 32.0236 136.371 31.9308 136.034 31.7452C135.697 31.5558 135.437 31.3418 135.255 31.1032C135.073 30.8607 134.933 30.66 134.835 30.5009H134.721V35.1145H133.38ZM134.698 27.4782C134.698 28.1373 134.795 28.7187 134.988 29.2225C135.181 29.7225 135.464 30.1145 135.835 30.3986C136.206 30.6789 136.661 30.8191 137.198 30.8191C137.759 30.8191 138.227 30.6713 138.602 30.3759C138.981 30.0766 139.265 29.6751 139.454 29.1713C139.647 28.6638 139.744 28.0994 139.744 27.4782C139.744 26.8645 139.649 26.3115 139.46 25.8191C139.274 25.3229 138.992 24.9308 138.613 24.6429C138.238 24.3513 137.767 24.2054 137.198 24.2054C136.653 24.2054 136.195 24.3437 135.823 24.6202C135.452 24.8929 135.172 25.2755 134.982 25.7679C134.793 26.2566 134.698 26.8266 134.698 27.4782ZM144.071 20.2054V31.8418H142.73V20.2054H144.071ZM149.786 32.0236C148.945 32.0236 148.22 31.838 147.61 31.4668C147.004 31.0918 146.536 30.5691 146.207 29.8986C145.881 29.2244 145.718 28.4403 145.718 27.5463C145.718 26.6524 145.881 25.8645 146.207 25.1827C146.536 24.4971 146.995 23.963 147.582 23.5804C148.173 23.1941 148.862 23.0009 149.65 23.0009C150.104 23.0009 150.553 23.0766 150.996 23.2282C151.44 23.3797 151.843 23.6259 152.207 23.9668C152.57 24.3039 152.86 24.7509 153.076 25.3077C153.292 25.8645 153.4 26.5501 153.4 27.3645V27.9327H146.673V26.7736H152.036C152.036 26.2812 151.938 25.8418 151.741 25.4554C151.548 25.0691 151.271 24.7641 150.911 24.5407C150.555 24.3172 150.135 24.2054 149.65 24.2054C149.116 24.2054 148.654 24.338 148.263 24.6032C147.877 24.8645 147.58 25.2054 147.371 25.6259C147.163 26.0463 147.059 26.4971 147.059 26.9782V27.7509C147.059 28.41 147.173 28.9687 147.4 29.427C147.631 29.8816 147.951 30.2282 148.36 30.4668C148.769 30.7016 149.245 30.8191 149.786 30.8191C150.138 30.8191 150.457 30.7698 150.741 30.6713C151.029 30.5691 151.277 30.4176 151.485 30.2168C151.693 30.0123 151.854 29.7585 151.968 29.4554L153.263 29.8191C153.127 30.2585 152.898 30.6448 152.576 30.9782C152.254 31.3077 151.856 31.5653 151.383 31.7509C150.909 31.9327 150.377 32.0236 149.786 32.0236ZM154.612 30.1938H167.732V31.2978H154.612V30.1938ZM160.484 27.1058H161.796V30.6578H160.484V27.1058ZM156.212 19.6818H166.1V24.0658H157.556V26.9618H156.244V23.0098H164.788V20.7698H156.212V19.6818ZM156.244 26.4018H166.436V27.4898H156.244V26.4018ZM176.839 19.8578H177.943V22.4498C177.943 23.2818 177.836 24.0925 177.623 24.8818C177.42 25.6605 177.127 26.3911 176.743 27.0738C176.37 27.7458 175.927 28.3431 175.415 28.8658C174.914 29.3778 174.364 29.7831 173.767 30.0818L172.951 28.9778C173.495 28.7325 174.002 28.3805 174.471 27.9218C174.94 27.4631 175.351 26.9458 175.703 26.3698C176.055 25.7831 176.332 25.1538 176.535 24.4818C176.738 23.8098 176.839 23.1325 176.839 22.4498V19.8578ZM177.063 19.8578H178.167V22.4498C178.167 23.1111 178.263 23.7618 178.455 24.4018C178.658 25.0418 178.935 25.6498 179.287 26.2258C179.65 26.7911 180.06 27.2925 180.519 27.7298C180.988 28.1565 181.49 28.4925 182.023 28.7378L181.223 29.7938C180.636 29.5165 180.092 29.1271 179.591 28.6258C179.09 28.1245 178.647 27.5485 178.263 26.8978C177.89 26.2471 177.596 25.5431 177.383 24.7858C177.17 24.0285 177.063 23.2498 177.063 22.4498V19.8578ZM183.543 18.6098H184.871V33.1058H183.543V18.6098ZM190.918 20.0978H192.006V21.2658C192.006 22.1511 191.835 22.9778 191.494 23.7458C191.163 24.5031 190.699 25.1645 190.102 25.7298C189.504 26.2845 188.8 26.7058 187.99 26.9938L187.286 25.9698C188.011 25.7138 188.646 25.3458 189.19 24.8658C189.734 24.3858 190.155 23.8418 190.454 23.2338C190.763 22.6151 190.918 21.9591 190.918 21.2658V20.0978ZM191.158 20.0978H192.246V21.2658C192.246 21.8951 192.39 22.5031 192.678 23.0898C192.966 23.6765 193.371 24.1938 193.894 24.6418C194.427 25.0898 195.046 25.4365 195.75 25.6818L195.078 26.7218C194.288 26.4338 193.595 26.0231 192.998 25.4898C192.411 24.9458 191.958 24.3111 191.638 23.5858C191.318 22.8605 191.158 22.0871 191.158 21.2658V20.0978ZM187.686 19.6178H195.43V20.7058H187.686V19.6178ZM197.254 18.6098H198.582V27.3298H197.254V18.6098ZM198.214 22.4178H200.71V23.5378H198.214V22.4178ZM189.174 28.0978H198.582V33.0898H197.254V29.1858H189.174V28.0978ZM211.477 18.6098H212.789V33.0898H211.477V18.6098ZM212.485 24.5618H215.157V25.6818H212.485V24.5618ZM201.589 20.9298H210.117V22.0178H201.589V20.9298ZM205.925 23.2018C206.607 23.2018 207.21 23.3458 207.733 23.6338C208.266 23.9218 208.682 24.3165 208.981 24.8178C209.29 25.3085 209.445 25.8791 209.445 26.5298C209.445 27.1805 209.29 27.7565 208.981 28.2578C208.682 28.7591 208.266 29.1538 207.733 29.4418C207.21 29.7191 206.607 29.8578 205.925 29.8578C205.242 29.8578 204.634 29.7191 204.101 29.4418C203.578 29.1538 203.162 28.7591 202.853 28.2578C202.543 27.7565 202.389 27.1805 202.389 26.5298C202.389 25.8791 202.543 25.3085 202.853 24.8178C203.162 24.3165 203.578 23.9218 204.101 23.6338C204.634 23.3458 205.242 23.2018 205.925 23.2018ZM205.925 24.3058C205.487 24.3058 205.098 24.4018 204.757 24.5938C204.415 24.7858 204.143 25.0471 203.941 25.3778C203.749 25.7085 203.653 26.0925 203.653 26.5298C203.653 26.9671 203.749 27.3565 203.941 27.6978C204.143 28.0285 204.415 28.2898 204.757 28.4818C205.098 28.6631 205.487 28.7538 205.925 28.7538C206.351 28.7538 206.735 28.6631 207.077 28.4818C207.418 28.2898 207.685 28.0285 207.877 27.6978C208.079 27.3565 208.181 26.9671 208.181 26.5298C208.181 26.0925 208.079 25.7085 207.877 25.3778C207.685 25.0471 207.418 24.7858 207.077 24.5938C206.735 24.4018 206.351 24.3058 205.925 24.3058ZM205.237 18.7858H206.565V21.4098H205.237V18.7858ZM226.531 18.6098H227.859V33.0898H226.531V18.6098ZM222.291 20.1778H223.603C223.603 21.2231 223.475 22.2311 223.219 23.2018C222.974 24.1725 222.585 25.0951 222.051 25.9698C221.518 26.8338 220.825 27.6391 219.971 28.3858C219.118 29.1325 218.083 29.7991 216.867 30.3858L216.163 29.3138C217.561 28.6418 218.713 27.8578 219.619 26.9618C220.526 26.0658 221.198 25.0685 221.635 23.9698C222.073 22.8605 222.291 21.6658 222.291 20.3858V20.1778ZM216.835 20.1778H222.851V21.2498H216.835V20.1778Z" fill="black"/>
<path d="M33.0796 16.8521C34.0948 16.8521 35.3673 16.1728 36.1251 15.2672C36.8115 14.4464 37.3119 13.3002 37.3119 12.154C37.3119 11.9983 37.2976 11.8427 37.269 11.7153C36.1394 11.7578 34.7811 12.4653 33.9661 13.4134C33.3226 14.1351 32.7364 15.2672 32.7364 16.4276C32.7364 16.5974 32.765 16.7672 32.7793 16.8238C32.8508 16.8379 32.9652 16.8521 33.0796 16.8521ZM29.5049 33.9746C30.8919 33.9746 31.5067 33.0548 33.2368 33.0548C34.9956 33.0548 35.3816 33.9463 36.9259 33.9463C38.4415 33.9463 39.4567 32.5595 40.4147 31.2011C41.4871 29.6445 41.9303 28.1162 41.9589 28.0454C41.8588 28.0171 38.9562 26.8426 38.9562 23.5454C38.9562 20.687 41.244 19.3992 41.3727 19.3002C39.857 17.1493 37.555 17.0927 36.9259 17.0927C35.2243 17.0927 33.8374 18.1115 32.9652 18.1115C32.0215 18.1115 30.7775 17.1493 29.3048 17.1493C26.5023 17.1493 23.6569 19.4417 23.6569 23.7719C23.6569 26.4605 24.7149 29.3048 26.0161 31.1444C27.1314 32.701 28.1037 33.9746 29.5049 33.9746Z" fill="black"/>
</svg>
