<svg width="24" height="24" viewBox="0 0 24 24" fill="none" xmlns="http://www.w3.org/2000/svg">
<rect width="24" height="24" fill="#D5D5D5"/>
<g id="&#236;&#187;&#180;&#237;&#143;&#172;&#235;&#132;&#140;&#237;&#138;&#184;">
<path d="M-163 -1097C-163 -1098.1 -162.105 -1099 -161 -1099H976C977.105 -1099 978 -1098.1 978 -1097V522C978 523.105 977.105 524 976 524H-161C-162.105 524 -163 523.105 -163 522V-1097Z" fill="#B3B3B3"/>
<path d="M-161 -1098H976V-1100H-161V-1098ZM977 -1097V522H979V-1097H977ZM976 523H-161V525H976V523ZM-162 522V-1097H-164V522H-162ZM-161 523C-161.552 523 -162 522.552 -162 522H-164C-164 523.657 -162.657 525 -161 525V523ZM977 522C977 522.552 976.552 523 976 523V525C977.657 525 979 523.657 979 522H977ZM976 -1098C976.552 -1098 977 -1097.55 977 -1097H979C979 -1098.66 977.657 -1100 976 -1100V-1098ZM-161 -1100C-162.657 -1100 -164 -1098.66 -164 -1097H-162C-162 -1097.55 -161.552 -1098 -161 -1098V-1100Z" fill="white" fill-opacity="0.1"/>
<g id="Date_today_light">
<rect id="Rectangle 25" x="3" y="6" width="18" height="15" rx="2" stroke="black"/>
<path id="Rectangle 26" d="M3 10C3 8.11438 3 7.17157 3.58579 6.58579C4.17157 6 5.11438 6 7 6H17C18.8856 6 19.8284 6 20.4142 6.58579C21 7.17157 21 8.11438 21 10H3Z" fill="black"/>
<path id="Line 1" d="M7 3L7 6" stroke="black" stroke-linecap="round"/>
<path id="Line 2" d="M17 3L17 6" stroke="black" stroke-linecap="round"/>
</g>
</g>
</svg>
