<svg width="130" height="20" viewBox="0 0 130 20" fill="none" xmlns="http://www.w3.org/2000/svg">
<rect width="130" height="19.5942" rx="5" fill="#FEE500"/>
<path d="M86.5337 7.13281H87.0385V12.6369H86.5337V7.13281ZM84.922 7.72884H85.4207C85.4207 8.12618 85.3721 8.50934 85.2748 8.87831C85.1815 9.24728 85.0335 9.598 84.8308 9.93047C84.6281 10.2589 84.3645 10.565 84.0401 10.8488C83.7158 11.1327 83.3225 11.3861 82.8603 11.6091L82.5927 11.2016C83.1238 10.9461 83.5617 10.6481 83.9063 10.3075C84.251 9.96696 84.5064 9.58786 84.6727 9.17024C84.8389 8.74856 84.922 8.29445 84.922 7.8079V7.72884ZM82.8481 7.72884H85.1349V8.13632H82.8481V7.72884Z" fill="black"/>
<path d="M80.8111 7.13281H81.3098V12.6369H80.8111V7.13281ZM81.1943 9.39527H82.21V9.821H81.1943V9.39527ZM77.0525 8.01468H80.2942V8.42825H77.0525V8.01468ZM78.7007 8.87831C78.9602 8.87831 79.1893 8.93305 79.388 9.04252C79.5907 9.15199 79.7488 9.30201 79.8624 9.49258C79.9799 9.67909 80.0387 9.89601 80.0387 10.1433C80.0387 10.3907 79.9799 10.6096 79.8624 10.8002C79.7488 10.9907 79.5907 11.1408 79.388 11.2502C79.1893 11.3557 78.9602 11.4084 78.7007 11.4084C78.4412 11.4084 78.2101 11.3557 78.0074 11.2502C77.8087 11.1408 77.6506 10.9907 77.533 10.8002C77.4154 10.6096 77.3566 10.3907 77.3566 10.1433C77.3566 9.89601 77.4154 9.67909 77.533 9.49258C77.6506 9.30201 77.8087 9.15199 78.0074 9.04252C78.2101 8.93305 78.4412 8.87831 78.7007 8.87831ZM78.7007 9.29796C78.5345 9.29796 78.3865 9.33445 78.2567 9.40743C78.127 9.48041 78.0236 9.57975 77.9466 9.70544C77.8736 9.83114 77.8371 9.9771 77.8371 10.1433C77.8371 10.3096 77.8736 10.4576 77.9466 10.5873C78.0236 10.713 78.127 10.8123 78.2567 10.8853C78.3865 10.9543 78.5345 10.9887 78.7007 10.9887C78.8629 10.9887 79.0089 10.9543 79.1386 10.8853C79.2684 10.8123 79.3697 10.713 79.4427 10.5873C79.5197 10.4576 79.5583 10.3096 79.5583 10.1433C79.5583 9.9771 79.5197 9.83114 79.4427 9.70544C79.3697 9.57975 79.2684 9.48041 79.1386 9.40743C79.0089 9.33445 78.8629 9.29796 78.7007 9.29796ZM78.4392 7.19971H78.944V8.19714H78.4392V7.19971Z" fill="black"/>
<path d="M72.9964 7.69843H73.41V8.1424C73.41 8.47893 73.3451 8.79316 73.2153 9.08509C73.0897 9.37297 72.9133 9.62435 72.6862 9.83925C72.4592 10.0501 72.1916 10.2102 71.8834 10.3197L71.6158 9.93047C71.8915 9.83316 72.1328 9.69328 72.3396 9.51082C72.5463 9.32837 72.7065 9.12158 72.82 8.89047C72.9376 8.65531 72.9964 8.40595 72.9964 8.1424V7.69843ZM73.0876 7.69843H73.5012V8.1424C73.5012 8.38162 73.5559 8.61273 73.6654 8.83574C73.7749 9.05874 73.929 9.25539 74.1276 9.42568C74.3304 9.59597 74.5655 9.72774 74.8331 9.821L74.5777 10.2163C74.2776 10.1068 74.0141 9.95075 73.787 9.74802C73.564 9.54123 73.3917 9.29999 73.2701 9.02427C73.1484 8.74856 73.0876 8.45461 73.0876 8.1424V7.69843ZM71.7679 7.51597H74.7115V7.92954H71.7679V7.51597ZM75.4048 7.13281H75.9096V10.4474H75.4048V7.13281ZM75.7697 8.5803H76.7185V9.00603H75.7697V8.5803ZM72.3335 10.7394H75.9096V12.6369H75.4048V11.1529H72.3335V10.7394Z" fill="black"/>
<path d="M67.6448 7.6072H68.0645V8.59246C68.0645 8.90872 68.0239 9.21687 67.9428 9.51691C67.8658 9.81289 67.7543 10.0906 67.6083 10.3501C67.4664 10.6056 67.2982 10.8326 67.1035 11.0313C66.913 11.2259 66.7042 11.38 66.4771 11.4935L66.1669 11.0739C66.3737 10.9806 66.5663 10.8468 66.7447 10.6725C66.9231 10.4981 67.0792 10.3015 67.213 10.0825C67.3468 9.85952 67.4522 9.6203 67.5293 9.36486C67.6063 9.10942 67.6448 8.85195 67.6448 8.59246V7.6072ZM67.73 7.6072H68.1496V8.59246C68.1496 8.84385 68.1861 9.09117 68.2591 9.33445C68.3361 9.57772 68.4416 9.80884 68.5754 10.0278C68.7132 10.2427 68.8693 10.4332 69.0437 10.5995C69.2221 10.7617 69.4126 10.8894 69.6154 10.9826L69.3113 11.384C69.0883 11.2786 68.8815 11.1306 68.6909 10.9401C68.5003 10.7495 68.3321 10.5306 68.1861 10.2832C68.0442 10.0359 67.9327 9.76829 67.8516 9.48041C67.7705 9.19254 67.73 8.89656 67.73 8.59246V7.6072ZM70.1931 7.13281H70.6979V12.643H70.1931V7.13281Z" fill="black"/>
<path d="M59.1961 11.5368H64.1832V11.9565H59.1961V11.5368ZM61.4281 10.363H61.9268V11.7132H61.4281V10.363ZM59.8042 7.54102H63.5628V9.20745H60.3151V10.3083H59.8164V8.80604H63.0641V7.95458H59.8042V7.54102ZM59.8164 10.0954H63.6906V10.509H59.8164V10.0954Z" fill="black"/>
<path d="M55.9853 10.2412H56.484V11.6096H55.9853V10.2412ZM56.2347 7.49219C56.6239 7.49219 56.9685 7.55301 57.2686 7.67464C57.5686 7.79223 57.8038 7.95846 57.9741 8.17336C58.1484 8.38825 58.2356 8.64166 58.2356 8.93359C58.2356 9.22552 58.1484 9.48096 57.9741 9.69991C57.8038 9.9148 57.5686 10.081 57.2686 10.1986C56.9685 10.3162 56.6239 10.375 56.2347 10.375C55.8495 10.375 55.5048 10.3162 55.2008 10.1986C54.9007 10.081 54.6655 9.9148 54.4953 9.69991C54.325 9.48096 54.2398 9.22552 54.2398 8.93359C54.2398 8.64166 54.325 8.38825 54.4953 8.17336C54.6655 7.95846 54.9007 7.79223 55.2008 7.67464C55.5048 7.55301 55.8495 7.49219 56.2347 7.49219ZM56.2347 7.89967C55.9427 7.89967 55.6832 7.94225 55.4562 8.02739C55.2291 8.11254 55.0507 8.23418 54.921 8.3923C54.7912 8.54638 54.7264 8.72681 54.7264 8.93359C54.7264 9.14037 54.7912 9.32283 54.921 9.48096C55.0507 9.63909 55.2291 9.76073 55.4562 9.84587C55.6832 9.93102 55.9427 9.97359 56.2347 9.97359C56.5266 9.97359 56.7861 9.93102 57.0131 9.84587C57.2402 9.76073 57.4186 9.63909 57.5484 9.48096C57.6822 9.32283 57.7491 9.14037 57.7491 8.93359C57.7491 8.72681 57.6822 8.54638 57.5484 8.3923C57.4186 8.23418 57.2402 8.11254 57.0131 8.02739C56.7861 7.94225 56.5266 7.89967 56.2347 7.89967ZM53.7533 11.5123H58.7404V11.932H53.7533V11.5123Z" fill="black"/>
<path d="M50.6459 7.70451H51.1385C51.1385 8.10186 51.1 8.4911 51.023 8.87223C50.946 9.2493 50.8142 9.61016 50.6277 9.9548C50.4412 10.2954 50.1857 10.6157 49.8614 10.9157C49.537 11.2158 49.1295 11.4874 48.6389 11.7307L48.3591 11.3415C48.797 11.1266 49.1619 10.8894 49.4539 10.6299C49.7458 10.3704 49.9789 10.0906 50.1533 9.79059C50.3276 9.49055 50.4533 9.17024 50.5304 8.82965C50.6074 8.48907 50.6459 8.13227 50.6459 7.75925V7.70451ZM48.6632 7.70451H50.95V8.11808H48.6632V7.70451ZM50.5729 9.06685V9.46217L48.4625 9.66287L48.3835 9.21889L50.5729 9.06685ZM52.0326 7.13281H52.5374V12.6308H52.0326V7.13281ZM52.4036 9.36486H53.4132V9.78451H52.4036V9.36486Z" fill="black"/>
<path d="M45.2031 7.70451H45.6957C45.6957 8.10186 45.6572 8.4911 45.5802 8.87223C45.5031 9.2493 45.3714 9.61016 45.1849 9.9548C44.9983 10.2954 44.7429 10.6157 44.4185 10.9157C44.0942 11.2158 43.6867 11.4874 43.1961 11.7307L42.9163 11.3415C43.3542 11.1266 43.7191 10.8894 44.0111 10.6299C44.303 10.3704 44.5361 10.0906 44.7105 9.79059C44.8848 9.49055 45.0105 9.17024 45.0875 8.82965C45.1646 8.48907 45.2031 8.13227 45.2031 7.75925V7.70451ZM43.2204 7.70451H45.5072V8.11808H43.2204V7.70451ZM45.1301 9.06685V9.46217L43.0197 9.66287L42.9406 9.21889L45.1301 9.06685ZM46.5898 7.13281H47.0946V12.6308H46.5898V7.13281ZM46.9608 9.36486H47.9704V9.78451H46.9608V9.36486Z" fill="black"/>
<path d="M19.4934 3H5.37631V16.5942H19.4934V3Z" fill="#FEE500"/>
<path d="M12.2561 6.0293C10.0657 6.0293 8.28989 7.4002 8.28989 9.09126C8.28989 10.1427 8.97671 11.07 10.0225 11.6214L9.58244 13.2276C9.54366 13.3701 9.70606 13.4829 9.83078 13.4008L11.7597 12.1285C11.9225 12.1442 12.0878 12.1532 12.2561 12.1532C14.4466 12.1532 16.2224 10.7821 16.2224 9.09126C16.2224 7.40042 14.4466 6.0293 12.2561 6.0293Z" fill="black"/>
</svg>
