<svg width="130" height="20" viewBox="0 0 130 20" fill="none" xmlns="http://www.w3.org/2000/svg">
<rect width="130" height="19.5942" rx="5" fill="white"/>
<path d="M86.1084 7.07031H86.6132V12.5744H86.1084V7.07031ZM84.4967 7.66634H84.9954C84.9954 8.06368 84.9467 8.44684 84.8494 8.81581C84.7562 9.18478 84.6082 9.5355 84.4055 9.86797C84.2027 10.1964 83.9392 10.5025 83.6148 10.7863C83.2904 11.0702 82.8972 11.3236 82.4349 11.5466L82.1673 11.1391C82.6985 10.8836 83.1364 10.5856 83.481 10.245C83.8257 9.90446 84.0811 9.52536 84.2473 9.10774C84.4136 8.68606 84.4967 8.23195 84.4967 7.7454V7.66634ZM82.4228 7.66634H84.7096V8.07382H82.4228V7.66634Z" fill="black"/>
<path d="M80.3858 7.07031H80.8845V12.5744H80.3858V7.07031ZM80.769 9.33277H81.7846V9.7585H80.769V9.33277ZM76.6272 7.95218H79.8688V8.36575H76.6272V7.95218ZM78.2754 8.81581C78.5349 8.81581 78.764 8.87055 78.9627 8.98002C79.1654 9.08949 79.3235 9.23951 79.437 9.43008C79.5546 9.61659 79.6134 9.83351 79.6134 10.0808C79.6134 10.3282 79.5546 10.5471 79.437 10.7377C79.3235 10.9282 79.1654 11.0783 78.9627 11.1877C78.764 11.2932 78.5349 11.3459 78.2754 11.3459C78.0159 11.3459 77.7848 11.2932 77.5821 11.1877C77.3834 11.0783 77.2253 10.9282 77.1077 10.7377C76.9901 10.5471 76.9313 10.3282 76.9313 10.0808C76.9313 9.83351 76.9901 9.61659 77.1077 9.43008C77.2253 9.23951 77.3834 9.08949 77.5821 8.98002C77.7848 8.87055 78.0159 8.81581 78.2754 8.81581ZM78.2754 9.23546C78.1092 9.23546 77.9612 9.27195 77.8314 9.34493C77.7017 9.41791 77.5983 9.51725 77.5212 9.64294C77.4483 9.76864 77.4118 9.9146 77.4118 10.0808C77.4118 10.2471 77.4483 10.3951 77.5212 10.5248C77.5983 10.6505 77.7017 10.7498 77.8314 10.8228C77.9612 10.8918 78.1092 10.9262 78.2754 10.9262C78.4376 10.9262 78.5835 10.8918 78.7133 10.8228C78.843 10.7498 78.9444 10.6505 79.0174 10.5248C79.0944 10.3951 79.1329 10.2471 79.1329 10.0808C79.1329 9.9146 79.0944 9.76864 79.0174 9.64294C78.9444 9.51725 78.843 9.41791 78.7133 9.34493C78.5835 9.27195 78.4376 9.23546 78.2754 9.23546ZM78.0139 7.13721H78.5187V8.13464H78.0139V7.13721Z" fill="black"/>
<path d="M72.5711 7.63593H72.9847V8.0799C72.9847 8.41643 72.9198 8.73066 72.7901 9.02259C72.6644 9.31047 72.488 9.56185 72.2609 9.77675C72.0339 9.98758 71.7663 10.1477 71.4581 10.2572L71.1905 9.86797C71.4662 9.77066 71.7075 9.63078 71.9143 9.44832C72.121 9.26587 72.2812 9.05908 72.3947 8.82797C72.5123 8.59281 72.5711 8.34345 72.5711 8.0799V7.63593ZM72.6623 7.63593H73.0759V8.0799C73.0759 8.31912 73.1306 8.55023 73.2401 8.77324C73.3496 8.99624 73.5037 9.19289 73.7023 9.36318C73.9051 9.53347 74.1402 9.66524 74.4078 9.7585L74.1524 10.1538C73.8524 10.0443 73.5888 9.88825 73.3617 9.68552C73.1387 9.47873 72.9664 9.23749 72.8448 8.96177C72.7232 8.68606 72.6623 8.39211 72.6623 8.0799V7.63593ZM71.3426 7.45347H74.2862V7.86704H71.3426V7.45347ZM74.9795 7.07031H75.4843V10.3849H74.9795V7.07031ZM75.3444 8.5178H76.2932V8.94353H75.3444V8.5178ZM71.9082 10.6769H75.4843V12.5744H74.9795V11.0904H71.9082V10.6769Z" fill="black"/>
<path d="M67.2195 7.5447H67.6392V8.52996C67.6392 8.84622 67.5986 9.15437 67.5175 9.45441C67.4405 9.75039 67.329 10.0281 67.183 10.2876C67.0411 10.5431 66.8729 10.7701 66.6782 10.9688C66.4877 11.1634 66.2789 11.3175 66.0518 11.431L65.7416 11.0114C65.9484 10.9181 66.141 10.7843 66.3194 10.61C66.4978 10.4356 66.6539 10.239 66.7877 10.02C66.9215 9.79702 67.0269 9.5578 67.104 9.30236C67.181 9.04692 67.2195 8.78945 67.2195 8.52996V7.5447ZM67.3047 7.5447H67.7243V8.52996C67.7243 8.78135 67.7608 9.02867 67.8338 9.27195C67.9108 9.51522 68.0162 9.74634 68.15 9.96528C68.2879 10.1802 68.444 10.3707 68.6183 10.537C68.7967 10.6992 68.9873 10.8269 69.19 10.9201L68.886 11.3215C68.6629 11.2161 68.4562 11.0681 68.2656 10.8776C68.075 10.687 67.9068 10.4681 67.7608 10.2207C67.6189 9.97339 67.5074 9.70579 67.4263 9.41791C67.3452 9.13004 67.3047 8.83406 67.3047 8.52996V7.5447ZM69.7678 7.07031H70.2726V12.5805H69.7678V7.07031Z" fill="black"/>
<path d="M58.7708 11.4724H63.7579V11.892H58.7708V11.4724ZM61.0028 10.2986H61.5015V11.6487H61.0028V10.2986ZM59.379 7.47656H63.1376V9.143H59.8898V10.2438H59.3911V8.74159H62.6388V7.89013H59.379V7.47656ZM59.3911 10.0309H63.2653V10.4445H59.3911V10.0309Z" fill="black"/>
<path d="M56.9363 12.168C56.6166 12.168 56.3409 12.0974 56.1091 11.9563C55.8787 11.8138 55.7009 11.6151 55.5756 11.3602C55.4518 11.1039 55.3899 10.8059 55.3899 10.4661C55.3899 10.1263 55.4518 9.8268 55.5756 9.56763C55.7009 9.30702 55.8751 9.104 56.0983 8.95858C56.3229 8.81171 56.585 8.73828 56.8844 8.73828C57.0572 8.73828 57.2278 8.76708 57.3963 8.82467C57.5648 8.88226 57.7181 8.97585 57.8563 9.10544C57.9946 9.23359 58.1047 9.40349 58.1868 9.61514C58.2688 9.8268 58.3099 10.0874 58.3099 10.397V10.6129H55.7527V10.1724H57.7915C57.7915 9.98518 57.7541 9.81816 57.6792 9.6713C57.6058 9.52443 57.5007 9.40853 57.3639 9.32358C57.2286 9.23862 57.0687 9.19615 56.8844 9.19615C56.6814 9.19615 56.5058 9.24654 56.3575 9.34733C56.2106 9.44668 56.0976 9.57627 56.0184 9.73609C55.9392 9.89591 55.8996 10.0673 55.8996 10.2501V10.5438C55.8996 10.7944 55.9428 11.0067 56.0292 11.181C56.117 11.3537 56.2387 11.4855 56.3942 11.5762C56.5497 11.6655 56.7304 11.7101 56.9363 11.7101C57.0702 11.7101 57.1911 11.6914 57.2991 11.654C57.4085 11.6151 57.5029 11.5575 57.582 11.4812C57.6612 11.4034 57.7224 11.307 57.7656 11.1918L58.258 11.33C58.2062 11.497 58.1191 11.6439 57.9967 11.7706C57.8743 11.8958 57.7231 11.9938 57.5432 12.0643C57.3632 12.1334 57.1609 12.168 56.9363 12.168Z" fill="black"/>
<path d="M54.7639 7.67578V12.099H54.2542V7.67578H54.7639Z" fill="black"/>
<path d="M50.7001 13.3429V8.78148H51.1925V9.30846H51.253C51.2904 9.25086 51.3423 9.17743 51.4085 9.08816C51.4762 8.99745 51.5726 8.91682 51.6979 8.84627C51.8246 8.77428 51.996 8.73828 52.2119 8.73828C52.4913 8.73828 52.7375 8.80811 52.9506 8.94778C53.1637 9.08744 53.33 9.28542 53.4495 9.54171C53.569 9.798 53.6287 10.1004 53.6287 10.4488C53.6287 10.8001 53.569 11.1047 53.4495 11.3624C53.33 11.6187 53.1644 11.8174 52.9527 11.9585C52.7411 12.0981 52.497 12.168 52.2206 12.168C52.0075 12.168 51.8369 12.1327 51.7087 12.0621C51.5806 11.9902 51.4819 11.9088 51.4128 11.8181C51.3437 11.7259 51.2904 11.6496 51.253 11.5892H51.2098V13.3429H50.7001ZM51.2012 10.4402C51.2012 10.6907 51.2379 10.9117 51.3113 11.1032C51.3847 11.2933 51.492 11.4423 51.6331 11.5503C51.7742 11.6568 51.947 11.7101 52.1515 11.7101C52.3646 11.7101 52.5424 11.654 52.6849 11.5416C52.8289 11.4279 52.9369 11.2753 53.0089 11.0838C53.0823 10.8908 53.119 10.6763 53.119 10.4402C53.119 10.2069 53.083 9.9967 53.011 9.80952C52.9405 9.6209 52.8332 9.47188 52.6892 9.36245C52.5467 9.25158 52.3674 9.19615 52.1515 9.19615C51.9441 9.19615 51.7699 9.2487 51.6288 9.35381C51.4877 9.45748 51.3811 9.6029 51.3092 9.79008C51.2372 9.97582 51.2012 10.1925 51.2012 10.4402Z" fill="black"/>
<path d="M47.146 13.3429V8.78148H47.6384V9.30846H47.6989C47.7363 9.25086 47.7882 9.17743 47.8544 9.08816C47.9221 8.99745 48.0185 8.91682 48.1438 8.84627C48.2705 8.77428 48.4418 8.73828 48.6578 8.73828C48.9372 8.73828 49.1834 8.80811 49.3965 8.94778C49.6096 9.08744 49.7759 9.28542 49.8954 9.54171C50.0149 9.798 50.0746 10.1004 50.0746 10.4488C50.0746 10.8001 50.0149 11.1047 49.8954 11.3624C49.7759 11.6187 49.6103 11.8174 49.3986 11.9585C49.187 12.0981 48.9429 12.168 48.6665 12.168C48.4534 12.168 48.2827 12.1327 48.1546 12.0621C48.0265 11.9902 47.9278 11.9088 47.8587 11.8181C47.7896 11.7259 47.7363 11.6496 47.6989 11.5892H47.6557V13.3429H47.146ZM47.6471 10.4402C47.6471 10.6907 47.6838 10.9117 47.7572 11.1032C47.8306 11.2933 47.9379 11.4423 48.079 11.5503C48.2201 11.6568 48.3929 11.7101 48.5974 11.7101C48.8104 11.7101 48.9883 11.654 49.1308 11.5416C49.2748 11.4279 49.3828 11.2753 49.4548 11.0838C49.5282 10.8908 49.5649 10.6763 49.5649 10.4402C49.5649 10.2069 49.5289 9.9967 49.4569 9.80952C49.3864 9.6209 49.2791 9.47188 49.1351 9.36245C48.9926 9.25158 48.8133 9.19615 48.5974 9.19615C48.39 9.19615 48.2158 9.2487 48.0747 9.35381C47.9336 9.45748 47.827 9.6029 47.755 9.79008C47.6831 9.97582 47.6471 10.1925 47.6471 10.4402Z" fill="black"/>
<path d="M43.4386 12.099H42.877L44.5012 7.67578H45.054L46.6782 12.099H46.1166L44.7949 8.37554H44.7603L43.4386 12.099ZM43.6459 10.3712H45.9093V10.8463H43.6459V10.3712Z" fill="black"/>
<path d="M12.5741 6.40374C12.96 6.40374 13.4437 6.14555 13.7318 5.8013C13.9927 5.48931 14.1829 5.05362 14.1829 4.61792C14.1829 4.55875 14.1775 4.49958 14.1666 4.45117C13.7372 4.46731 13.2209 4.73626 12.9111 5.09665C12.6665 5.37098 12.4437 5.8013 12.4437 6.24237C12.4437 6.30692 12.4545 6.37147 12.46 6.39298C12.4871 6.39836 12.5306 6.40374 12.5741 6.40374ZM11.2153 12.9123C11.7425 12.9123 11.9762 12.5627 12.6339 12.5627C13.3024 12.5627 13.4491 12.9015 14.0361 12.9015C14.6123 12.9015 14.9982 12.3744 15.3623 11.858C15.7699 11.2663 15.9384 10.6854 15.9493 10.6585C15.9112 10.6478 14.8079 10.2013 14.8079 8.948C14.8079 7.86144 15.6775 7.37196 15.7265 7.3343C15.1503 6.5167 14.2753 6.49518 14.0361 6.49518C13.3894 6.49518 12.8622 6.88247 12.5306 6.88247C12.1719 6.88247 11.699 6.5167 11.1392 6.5167C10.074 6.5167 8.99237 7.38809 8.99237 9.03406C8.99237 10.0561 9.39457 11.1372 9.88916 11.8365C10.3131 12.4282 10.6827 12.9123 11.2153 12.9123Z" fill="black"/>
</svg>
