<svg width="67" height="66" viewBox="0 0 67 66" fill="none" xmlns="http://www.w3.org/2000/svg">
<g filter="url(#filter0_d_193_3041)">
<path fill-rule="evenodd" clip-rule="evenodd" d="M62.916 29C62.916 45.0163 49.9323 58 33.916 58C17.8998 58 4.91602 45.0163 4.91602 29C4.91602 12.9837 17.8998 0 33.916 0C49.9323 0 62.916 12.9837 62.916 29ZM49.3019 15.4965C49.0628 15.6346 48.9808 15.9404 49.1189 16.1795C51.355 20.0526 52.5322 24.446 52.5322 28.9182C52.5322 33.3905 51.355 37.7839 49.1189 41.657C48.9808 41.8961 49.0628 42.2019 49.3019 42.34C49.541 42.4781 49.8468 42.3961 49.9849 42.157C52.3088 38.1319 53.5322 33.566 53.5322 28.9182C53.5322 24.2705 52.3088 19.7046 49.9849 15.6795C49.8468 15.4404 49.541 15.3584 49.3019 15.4965ZM44.1565 19.6105C44.0185 19.3713 44.1004 19.0655 44.3395 18.9275C44.5787 18.7894 44.8845 18.8713 45.0225 19.1105C46.7442 22.0924 47.6505 25.475 47.6505 28.9182C47.6505 32.3615 46.7442 35.7441 45.0225 38.726C44.8845 38.9651 44.5787 39.0471 44.3395 38.909C44.1004 38.7709 44.0185 38.4651 44.1565 38.226C45.7904 35.3961 46.6505 32.1859 46.6505 28.9182C46.6505 25.6505 45.7904 22.4404 44.1565 19.6105ZM39.1867 21.3745C38.9455 21.5089 38.859 21.8134 38.9935 22.0546C40.1561 24.1404 40.7688 26.5076 40.7688 28.9182C40.7688 31.3289 40.1561 33.6961 38.9934 35.7818C38.859 36.023 38.9455 36.3276 39.1867 36.462C39.4279 36.5965 39.7325 36.5099 39.8669 36.2687C41.1133 34.0328 41.7688 31.4978 41.7688 28.9182C41.7688 26.3387 41.1133 23.8037 39.8669 21.5677C39.7325 21.3265 39.4279 21.24 39.1867 21.3745ZM19.7617 17.6648H21.6633C21.6738 18.1971 22.1086 18.6254 22.6434 18.6254H26.5645C27.0994 18.6254 27.5341 18.1971 27.5446 17.6648H29.4462C30.5508 17.6648 31.4462 18.5602 31.4462 19.6648V39.1521C31.4462 40.2567 30.5508 41.1521 29.4462 41.1521H19.7617C18.6572 41.1521 17.7617 40.2567 17.7617 39.1521V19.6648C17.7617 18.5602 18.6572 17.6648 19.7617 17.6648ZM29.4462 16.6648H26.5679L26.5645 16.6648H22.6434L22.6401 16.6648H19.7617C18.1049 16.6648 16.7617 18.0079 16.7617 19.6648V39.1521C16.7617 40.809 18.1049 42.1521 19.7617 42.1521H29.4462C31.1031 42.1521 32.4462 40.809 32.4462 39.1521V19.6648C32.4462 18.0079 31.1031 16.6648 29.4462 16.6648Z" fill="black"/>
</g>
<defs>
<filter id="filter0_d_193_3041" x="0.916016" y="0" width="66" height="66" filterUnits="userSpaceOnUse" color-interpolation-filters="sRGB">
<feFlood flood-opacity="0" result="BackgroundImageFix"/>
<feColorMatrix in="SourceAlpha" type="matrix" values="0 0 0 0 0 0 0 0 0 0 0 0 0 0 0 0 0 0 127 0" result="hardAlpha"/>
<feOffset dy="4"/>
<feGaussianBlur stdDeviation="2"/>
<feComposite in2="hardAlpha" operator="out"/>
<feColorMatrix type="matrix" values="0 0 0 0 0 0 0 0 0 0 0 0 0 0 0 0 0 0 0.25 0"/>
<feBlend mode="normal" in2="BackgroundImageFix" result="effect1_dropShadow_193_3041"/>
<feBlend mode="normal" in="SourceGraphic" in2="effect1_dropShadow_193_3041" result="shape"/>
</filter>
</defs>
</svg>
