<svg width="84" height="84" viewBox="0 0 84 84" fill="none" xmlns="http://www.w3.org/2000/svg">
<g style="mix-blend-mode:multiply" filter="url(#filter0_f_3002_2665)">
<circle cx="42" cy="42" r="32" fill="#BABABA"/>
</g>
<circle cx="41.916" cy="42" r="29" fill="black"/>
<path d="M57.5519 54.9076C59.8319 50.9585 61.0322 46.4789 61.0322 41.9189C61.0322 37.3589 59.8319 32.8792 57.5519 28.9301" stroke="white" stroke-linecap="round"/>
<path d="M52.5894 51.476C54.2671 48.5701 55.1504 45.2737 55.1504 41.9182C55.1504 38.5628 54.2671 35.2664 52.5894 32.3605" stroke="white" stroke-linecap="round"/>
<path d="M47.4299 49.0262C48.6344 46.8654 49.2686 44.4143 49.2686 41.9192C49.2686 39.4241 48.6344 36.9729 47.4299 34.8121" stroke="white" stroke-linecap="round"/>
<path fill-rule="evenodd" clip-rule="evenodd" d="M29.6633 30.6641H27.7617C26.6572 30.6641 25.7617 31.5595 25.7617 32.6641V52.1514C25.7617 53.256 26.6571 54.1514 27.7617 54.1514H37.4462C38.5508 54.1514 39.4462 53.256 39.4462 52.1514V32.6641C39.4462 31.5595 38.5508 30.6641 37.4462 30.6641H35.5446C35.5341 31.1964 35.0993 31.6246 34.5645 31.6246H30.6434C30.1086 31.6246 29.6738 31.1964 29.6633 30.6641ZM34.5679 29.6641H37.4462C39.1031 29.6641 40.4462 31.0072 40.4462 32.6641V52.1514C40.4462 53.8082 39.1031 55.1514 37.4462 55.1514H27.7617C26.1049 55.1514 24.7617 53.8082 24.7617 52.1514V32.6641C24.7617 31.0072 26.1049 29.6641 27.7617 29.6641H30.6401C30.6412 29.6641 30.6423 29.6641 30.6434 29.6641H34.5645C34.5656 29.6641 34.5667 29.6641 34.5679 29.6641Z" fill="white"/>
<defs>
<filter id="filter0_f_3002_2665" x="0" y="0" width="84" height="84" filterUnits="userSpaceOnUse" color-interpolation-filters="sRGB">
<feFlood flood-opacity="0" result="BackgroundImageFix"/>
<feBlend mode="normal" in="SourceGraphic" in2="BackgroundImageFix" result="shape"/>
<feGaussianBlur stdDeviation="5" result="effect1_foregroundBlur_3002_2665"/>
</filter>
</defs>
</svg>
