<svg width="130" height="194" viewBox="0 0 130 194" fill="none" xmlns="http://www.w3.org/2000/svg">
<path d="M99.7769 193.47V159H129.654V167.297H112.716V172.186H128.914V180.482H112.716V185.174H130V193.47H99.7769Z" fill="#FAFAFA"/>
<path d="M70.5564 193.47L58.2597 159H72.433L78.8529 179.643H78.9517L85.421 159H98.9523L86.2111 193.47H70.5564Z" fill="#FAFAFA"/>
<path d="M43.6955 159H56.9304V193.47H43.6955V159Z" fill="#FAFAFA"/>
<path d="M12.346 175.791L1.48152 159H16.7412L21.8772 169.173L27.4082 159H41.3345L29.7786 175.791L42.2235 193.47H26.865L20.3957 181.815L14.3708 193.47H0L12.346 175.791Z" fill="#FAFAFA"/>
<path d="M65.0047 20.3982L20.3905 65.0002L9.24149 53.8519C-3.08049 41.5308 -3.08049 21.5625 9.24149 9.24094C15.4023 3.08017 23.4709 0 31.5396 0C39.6083 0 47.6855 3.08017 53.8467 9.24094L65.0047 20.3982Z" fill="#D1D1D1"/>
<path d="M120.759 76.1485C133.081 88.4696 133.081 108.438 120.759 120.759C114.606 126.92 106.529 130 98.4604 130C90.3917 130 82.3145 126.92 76.1533 120.759L20.3905 65.0002L65.0047 20.3982L76.1533 9.24095C88.4753 -3.08016 108.445 -3.08016 120.758 9.24095C126.919 15.4017 130 23.4694 130 31.5465C130 39.6235 126.919 47.6912 120.758 53.852L109.609 65.0002L120.759 76.1485Z" fill="white"/>
<path d="M65.0047 109.611L53.8467 120.759C41.5247 133.08 21.5549 133.08 9.24193 120.759C3.08071 114.598 0.000332081 106.531 0.000332081 98.4535C0.000332081 90.3765 3.08071 82.3088 9.24193 76.148L20.3905 65.0002L65.0047 109.611Z" fill="#A8A8A8"/>
</svg>
